<svg width="96" height="128" viewBox="0 0 96 128" fill="none" xmlns="http://www.w3.org/2000/svg">
<g clip-path="url(#clip0_0_53)">
<path d="M48.7463 73.3284C50.7823 72.5666 52.7474 71.4864 54.8349 70.8371C58.4558 69.7132 61.5033 69.1325 65.2336 70.2002C68.1458 71.0369 69.0994 72.4105 69.1252 75.3577C69.1574 79.9095 65.8199 86.9214 63.9645 91.1672C60.3758 99.3592 55.782 107.183 52.2126 115.269C52.0193 115.706 52.0064 116.199 51.6521 116.586C54.0102 119.146 58.5718 118.409 61.7611 117.935C72.9394 116.274 83.6669 110.398 94.3107 106.983C94.6715 106.864 95.3222 106.583 95.6637 106.808C95.2062 107.764 93.8532 107.838 92.977 108.238C90.8637 109.218 88.7311 110.018 86.6951 110.86C78.6414 114.188 62.7275 121.25 54.2228 119.358C53.3594 119.165 51.317 118.066 50.8725 118.203C50.4279 118.341 49.9125 120.095 49.5968 120.595C48.669 122.075 47.0711 124.522 45.2542 124.891C41.9103 125.565 42.5159 119.502 42.5997 117.429C43.0507 106.29 45.1189 94.8449 46.4268 83.7682L46.3302 83.1126C45.9823 82.8816 42.0198 84.4862 41.3627 84.7672C34.5525 87.7206 26.138 92.647 19.6628 96.4621C17.0405 98.0043 16.9117 98.0105 15.6424 100.602C12.35 107.333 8.94816 114.37 5.42386 121.132C5.03084 121.887 4.14816 122.724 3.95487 123.748C3.87111 124.166 3.45877 125.153 3.24615 125.39C2.53098 126.214 1.77072 127.032 1.13286 127.913C-1.10928 127.931 0.591654 126.558 1.04266 125.815C2.66629 123.117 4.12883 120.401 5.58494 117.679C8.67112 111.941 11.5833 106.121 14.328 100.221L13.9994 99.9024C12.4402 100.571 10.5267 101.963 8.96105 102.462C7.6338 102.887 7.94306 102.469 6.73179 103.268C5.92642 103.799 3.62629 104.492 2.79515 103.948L2.56964 103.505C2.67917 103.093 4.24481 101.669 4.67004 101.282C9.06414 97.3175 14.1927 94.2954 18.6835 90.5928C28.5541 65.4611 38.5664 40.4105 47.9602 15.0915C49.3519 11.3452 50.4408 7.33034 51.9227 3.62771C52.4059 2.41639 52.9084 0.555707 54.1068 0C55.2279 0 55.4727 3.33424 55.5307 4.15219C56.2008 14.03 54.1519 24.1389 53.1275 33.9106C52.2706 42.1026 51.6263 50.382 50.6792 58.5366C50.1058 63.4755 49.3519 68.4019 48.7398 73.3346L48.7463 73.3284ZM54.5192 5.04507C54.3517 4.68917 54.4676 4.08351 54.3517 3.59649C54.2615 3.20937 54.1455 2.31024 53.7911 2.12293C50.2861 11.9508 46.7039 21.7538 42.9927 31.5067C39.1721 41.5594 35.113 51.5184 31.2537 61.5711C27.9871 70.0816 25.0813 78.8293 21.4475 87.1337C21.106 87.9079 20.6486 88.7259 20.2427 89.4751C20.6421 89.7748 24.7463 86.759 25.4357 86.3282C31.9366 82.2697 38.5278 78.4609 45.2993 74.9768C47.1742 74.009 47.4384 74.521 47.8378 72.1296C48.9138 65.6796 49.3133 59.0985 50.0606 52.6049C51.6843 38.4624 53.7589 23.8267 54.3066 9.63434C54.3581 8.34185 54.6867 7.03688 54.4419 5.73815C54.4419 5.73815 54.5385 5.10751 54.5063 5.04507H54.5192ZM47.87 81.1895H51.4845C51.6005 81.1895 53.2886 82.1011 53.4625 82.2509C55.2343 83.7682 54.7125 88.0702 54.3903 90.1682C53.4754 96.1873 48.0311 109.774 50.3957 114.988C50.5117 115.25 50.3828 115.5 50.8274 115.412C53.179 110.823 55.3503 106.196 57.5796 101.551C60.524 95.4193 68.3391 80.9897 67.8172 74.7145C67.6368 72.5354 66.8379 71.9672 64.8148 71.2492C59.5833 69.3822 53.4754 72.3856 48.7334 74.4835L47.87 81.1957V81.1895ZM47.2129 75.239C39.3396 78.6544 32.0719 83.3124 24.9331 87.9641C23.5028 88.8944 20.0623 90.6989 19.2827 92.0538C18.9734 92.5908 18.1745 94.4453 17.9876 95.0447C17.8781 95.3819 17.8008 95.7128 17.8394 96.0687C27.4008 91.1984 36.3243 85.0732 46.5621 81.5141C47.0002 81.0271 46.6974 80.0468 46.7812 79.3912C46.9616 78.0113 47.5221 76.6189 47.2129 75.2453V75.239ZM48.888 119.371C49.0813 119.065 49.6612 118.028 49.7449 117.754C50.0993 116.511 49.3713 116.062 49.0813 114.981C47.3739 108.65 51.1946 99.5216 52.6378 93.134C53.6494 88.6572 55.782 80.3465 47.87 82.5631L46.5621 90.649C45.9049 99.2656 44.3973 107.92 43.9205 116.567C43.7917 118.946 43.869 121.375 44.3651 123.698C46.4913 123.667 47.3933 121.3 48.3468 119.789C48.4821 119.577 48.8043 119.502 48.888 119.371ZM17.6139 93.0966C17.3691 92.8718 15.5071 94.1206 15.1463 94.3641C12.0988 96.4496 8.51004 99.353 5.79112 101.932C5.55917 102.15 5.23702 102.238 5.33366 102.656C8.93528 101.282 12.2985 99.4591 15.578 97.4985L17.6075 93.0903L17.6139 93.0966Z" fill="white"/>
</g>
<defs>
<clipPath id="clip0_0_53">
<rect width="96" height="128" fill="white"/>
</clipPath>
</defs>
</svg>
