<svg width="3747" height="603" viewBox="0 0 3747 603" fill="none" xmlns="http://www.w3.org/2000/svg">
<path d="M213.845 564.409C214.749 560.714 220.459 557.101 228.224 554.022C239.357 567.365 272.632 601.891 319.095 603C319.177 603 319.301 603 319.383 603C319.465 603 319.588 603 319.67 603C366.133 601.891 399.368 567.365 410.542 554.022C418.307 557.101 424.058 560.714 424.921 564.409C427.345 574.631 439.546 558.579 437.943 534.481C436.3 510.382 369.625 510.382 356.644 509.643C343.662 508.904 333.063 519.126 319.424 528.61C305.785 519.126 295.227 508.904 282.204 509.643C269.182 510.382 202.507 510.382 200.905 534.481C199.261 558.579 211.462 574.631 213.927 564.409H213.845ZM273.988 544.703C292.68 544.703 319.342 548.357 319.342 548.357C319.342 548.357 346.004 544.703 364.696 544.703C370.283 544.703 377.636 545.565 385.318 547.002C372.542 559.893 348.797 578.901 319.342 579.722C289.887 578.901 266.142 559.893 253.365 547.002C261.047 545.565 268.401 544.703 273.988 544.703Z" fill="#2E3234"/>
<path d="M378.335 436.765C378.335 436.765 386.14 429.375 396.862 429.129C407.42 429.375 415.102 436.477 415.39 436.765C417.649 438.982 420.607 440.09 423.565 440.09C426.523 440.09 429.522 438.941 431.822 436.683C436.382 432.126 436.341 424.777 431.822 420.22C430.385 418.783 417.197 406.18 397.109 405.851H396.698C376.65 406.18 363.463 418.783 361.984 420.22C357.465 424.736 357.465 432.003 361.943 436.56C366.421 441.117 373.775 441.199 378.376 436.765H378.335Z" fill="#2E3234"/>
<path d="M471.793 387.175C475.696 382.7 470.931 375.885 467.726 372.191C459.222 362.42 440.448 346.203 410.254 347.312C396.984 347.804 381.456 349.406 368.72 351.581C345.633 355.564 344.647 359.053 343.948 361.311C343.455 363.035 343.784 365.499 346.29 367.223C358.039 375.393 376.362 373.34 394.109 371.37C409.761 369.645 425.947 367.798 434.82 373.669C452.485 385.287 461.646 389.228 466.781 389.228C469.123 389.228 470.643 388.407 471.752 387.134L471.793 387.175Z" fill="#2E3234"/>
<path d="M246.381 405.809C226.333 406.138 213.146 418.741 211.667 420.178C207.107 424.735 207.107 432.084 211.667 436.641C213.927 438.899 216.925 440.048 219.924 440.048C222.923 440.048 225.799 438.94 228.1 436.723C228.387 436.435 236.069 429.333 246.627 429.087C257.349 429.374 265.073 436.682 265.155 436.723C269.756 441.157 277.11 441.075 281.587 436.518C286.065 431.961 286.065 424.694 281.546 420.178C280.108 418.741 266.921 406.138 246.833 405.809H246.422H246.381Z" fill="#2E3234"/>
<path d="M299.458 361.349C298.801 359.05 297.774 355.602 274.686 351.619C261.951 349.402 246.422 347.801 233.153 347.35C202.917 346.2 184.184 362.458 175.68 372.229C172.476 375.882 167.711 382.738 171.613 387.213C172.723 388.486 174.243 389.307 176.584 389.307C181.719 389.307 190.881 385.366 208.545 373.748C217.419 367.918 233.605 369.724 249.257 371.449C266.963 373.419 285.285 375.472 297.076 367.302C299.54 365.578 299.91 363.115 299.376 361.39L299.458 361.349Z" fill="#2E3234"/>
<path d="M484.445 303.914C492.004 297.345 485.02 228.292 482.802 224.433C480.583 220.574 400.105 175.866 351.095 182.435C229.823 198.692 164.134 270.455 151.399 283.92C138.664 297.386 161.217 297.263 168.448 294.266C226.742 270.085 304.92 230.673 388.438 255.182C411.402 261.915 479.186 308.512 484.445 303.914Z" fill="#2E3234"/>
<path d="M138.581 514.031C152.426 501.099 122.806 437.465 124.655 389.227C127.859 306.338 134.761 280.556 138.047 273.043C143.963 259.578 158.342 243.361 179.293 238.312C200.244 233.262 144.374 143.559 160.683 138.509C176.992 133.459 208.009 207.932 215.609 206.782C252.664 201.158 234.178 179.645 293.745 164.948C326.076 156.983 258.498 96.4696 274.971 89.0798C289.021 82.7985 321.188 163.1 367.774 162.813C406.144 162.567 422.864 78.8163 431.737 87.9303C447.43 104.065 418.057 142.82 424.014 171.599C427.095 186.501 451.415 189.006 459.015 191.387C491.552 201.568 572.934 138.263 414.442 23.8038C338.278 -31.2088 273.205 24.8301 150.577 36.079C62.2114 44.1666 100.17 122.334 48.9011 201.034C-81.6963 401.584 84.6417 564.363 138.581 513.99V514.031Z" fill="#2E3234"/>
<path d="M752 450L865.2 168.8H909.6L1022.4 450H964.4L877.2 219.2H897.2L808.8 450H752ZM812 397.6V352H963.2V397.6H812ZM1191.14 450V339.2C1191.14 327.733 1187.54 318.4 1180.34 311.2C1173.14 304 1163.8 300.4 1152.34 300.4C1144.87 300.4 1138.2 302 1132.34 305.2C1126.47 308.4 1121.8 312.933 1118.34 318.8C1115.14 324.667 1113.54 331.467 1113.54 339.2L1093.14 328.8C1093.14 313.6 1096.34 300.4 1102.74 289.2C1109.4 277.733 1118.47 268.8 1129.94 262.4C1141.67 256 1154.87 252.8 1169.54 252.8C1183.67 252.8 1196.34 256.4 1207.54 263.6C1218.74 270.533 1227.54 279.733 1233.94 291.2C1240.34 302.4 1243.54 314.533 1243.54 327.6V450H1191.14ZM1061.14 450V256.8H1113.54V450H1061.14ZM1374.55 535.6C1354.01 535.6 1335.88 531.867 1320.15 524.4C1304.41 517.2 1291.88 506.933 1282.55 493.6L1315.75 460.4C1323.21 469.2 1331.48 475.867 1340.55 480.4C1349.88 485.2 1361.08 487.6 1374.15 487.6C1390.41 487.6 1403.21 483.467 1412.55 475.2C1422.15 466.933 1426.95 455.467 1426.95 440.8V392.4L1435.75 350L1427.35 307.6V256.8H1479.35V440C1479.35 459.2 1474.81 475.867 1465.75 490C1456.95 504.4 1444.68 515.6 1428.95 523.6C1413.21 531.6 1395.08 535.6 1374.55 535.6ZM1372.15 444.8C1354.81 444.8 1339.21 440.667 1325.35 432.4C1311.48 423.867 1300.55 412.267 1292.55 397.6C1284.81 382.933 1280.95 366.533 1280.95 348.4C1280.95 330.267 1284.81 314 1292.55 299.6C1300.55 285.2 1311.48 273.867 1325.35 265.6C1339.21 257.067 1354.81 252.8 1372.15 252.8C1386.55 252.8 1399.21 255.6 1410.15 261.2C1421.35 266.8 1430.15 274.533 1436.55 284.4C1442.95 294 1446.41 305.333 1446.95 318.4V379.2C1446.41 392 1442.81 403.467 1436.15 413.6C1429.75 423.467 1420.95 431.2 1409.75 436.8C1398.81 442.133 1386.28 444.8 1372.15 444.8ZM1382.55 397.2C1392.15 397.2 1400.41 395.2 1407.35 391.2C1414.55 386.933 1420.15 381.2 1424.15 374C1428.15 366.533 1430.15 358.133 1430.15 348.8C1430.15 339.2 1428.15 330.8 1424.15 323.6C1420.15 316.4 1414.55 310.8 1407.35 306.8C1400.41 302.533 1392.15 300.4 1382.55 300.4C1372.95 300.4 1364.55 302.533 1357.35 306.8C1350.15 310.8 1344.55 316.533 1340.55 324C1336.55 331.2 1334.55 339.467 1334.55 348.8C1334.55 357.867 1336.55 366.133 1340.55 373.6C1344.55 380.8 1350.15 386.533 1357.35 390.8C1364.55 395.067 1372.95 397.2 1382.55 397.2ZM1625.79 454C1605.52 454 1587.52 449.733 1571.79 441.2C1556.05 432.4 1543.52 420.4 1534.19 405.2C1525.12 390 1520.59 372.667 1520.59 353.2C1520.59 334 1524.99 316.933 1533.79 302C1542.85 286.8 1555.12 274.8 1570.59 266C1586.05 256.933 1603.25 252.4 1622.19 252.4C1640.85 252.4 1657.25 256.667 1671.39 265.2C1685.79 273.467 1696.99 284.933 1704.99 299.6C1713.25 314 1717.39 330.4 1717.39 348.8C1717.39 352.267 1717.12 355.867 1716.59 359.6C1716.32 363.067 1715.65 367.067 1714.59 371.6L1552.19 372V332.8L1690.19 332.4L1668.99 348.8C1668.45 337.333 1666.32 327.733 1662.59 320C1659.12 312.267 1653.92 306.4 1646.99 302.4C1640.32 298.133 1632.05 296 1622.19 296C1611.79 296 1602.72 298.4 1594.99 303.2C1587.25 307.733 1581.25 314.267 1576.99 322.8C1572.99 331.067 1570.99 340.933 1570.99 352.4C1570.99 364.133 1573.12 374.4 1577.39 383.2C1581.92 391.733 1588.32 398.4 1596.59 403.2C1604.85 407.733 1614.45 410 1625.39 410C1635.25 410 1644.19 408.4 1652.19 405.2C1660.19 401.733 1667.12 396.667 1672.99 390L1703.79 420.8C1694.45 431.733 1682.99 440 1669.39 445.6C1656.05 451.2 1641.52 454 1625.79 454ZM1757.79 450V160.8H1810.19V450H1757.79ZM1955.42 454C1935.96 454 1918.36 449.6 1902.62 440.8C1887.16 431.733 1874.76 419.6 1865.42 404.4C1856.36 388.933 1851.82 371.733 1851.82 352.8C1851.82 333.867 1856.36 316.933 1865.42 302C1874.49 286.8 1886.89 274.8 1902.62 266C1918.36 256.933 1935.82 252.4 1955.02 252.4C1974.76 252.4 1992.36 256.933 2007.82 266C2023.56 274.8 2035.96 286.8 2045.02 302C2054.09 316.933 2058.62 333.867 2058.62 352.8C2058.62 371.733 2054.09 388.933 2045.02 404.4C2035.96 419.6 2023.56 431.733 2007.82 440.8C1992.36 449.6 1974.89 454 1955.42 454ZM1955.02 405.2C1964.89 405.2 1973.56 403.067 1981.02 398.8C1988.76 394.267 1994.62 388.133 1998.62 380.4C2002.89 372.4 2005.02 363.333 2005.02 353.2C2005.02 343.067 2002.89 334.133 1998.62 326.4C1994.36 318.667 1988.49 312.667 1981.02 308.4C1973.56 303.867 1964.89 301.6 1955.02 301.6C1945.42 301.6 1936.89 303.867 1929.42 308.4C1921.96 312.667 1916.09 318.667 1911.82 326.4C1907.56 334.133 1905.42 343.067 1905.42 353.2C1905.42 363.333 1907.56 372.4 1911.82 380.4C1916.09 388.133 1921.96 394.267 1929.42 398.8C1936.89 403.067 1945.42 405.2 1955.02 405.2ZM2166.76 454.4C2155.82 454.4 2145.02 452.933 2134.36 450C2123.96 447.067 2114.36 443.067 2105.56 438C2096.76 432.667 2089.16 426.267 2082.76 418.8L2113.96 387.2C2120.62 394.667 2128.36 400.267 2137.16 404C2145.96 407.733 2155.69 409.6 2166.36 409.6C2174.89 409.6 2181.29 408.4 2185.56 406C2190.09 403.6 2192.36 400 2192.36 395.2C2192.36 389.867 2189.96 385.733 2185.16 382.8C2180.62 379.867 2174.62 377.467 2167.16 375.6C2159.69 373.467 2151.82 371.2 2143.56 368.8C2135.56 366.133 2127.82 362.8 2120.36 358.8C2112.89 354.533 2106.76 348.8 2101.96 341.6C2097.42 334.133 2095.16 324.533 2095.16 312.8C2095.16 300.533 2098.09 289.867 2103.96 280.8C2110.09 271.733 2118.76 264.667 2129.96 259.6C2141.16 254.533 2154.36 252 2169.56 252C2185.56 252 2199.96 254.8 2212.76 260.4C2225.82 266 2236.62 274.4 2245.16 285.6L2213.56 317.2C2207.69 310 2201.02 304.8 2193.56 301.6C2186.36 298.4 2178.49 296.8 2169.96 296.8C2162.22 296.8 2156.22 298 2151.96 300.4C2147.96 302.8 2145.96 306.133 2145.96 310.4C2145.96 315.2 2148.22 318.933 2152.76 321.6C2157.56 324.267 2163.69 326.667 2171.16 328.8C2178.62 330.667 2186.36 332.933 2194.36 335.6C2202.62 338 2210.36 341.467 2217.56 346C2225.02 350.533 2231.02 356.533 2235.56 364C2240.36 371.467 2242.76 381.067 2242.76 392.8C2242.76 411.733 2235.96 426.8 2222.36 438C2208.76 448.933 2190.22 454.4 2166.76 454.4ZM2361.82 412L2509.42 206.8H2574.22L2426.62 412H2361.82ZM2361.82 450V412L2402.62 402H2571.02V450H2361.82ZM2370.22 216.8V168.8H2574.22V206.8L2533.02 216.8H2370.22ZM2619.28 450V256.8H2672.08V450H2619.28ZM2645.68 225.6C2637.14 225.6 2630.08 222.8 2624.48 217.2C2618.88 211.333 2616.08 204.133 2616.08 195.6C2616.08 187.333 2618.88 180.267 2624.48 174.4C2630.08 168.533 2637.14 165.6 2645.68 165.6C2654.48 165.6 2661.54 168.533 2666.88 174.4C2672.48 180.267 2675.28 187.333 2675.28 195.6C2675.28 204.133 2672.48 211.333 2666.88 217.2C2661.54 222.8 2654.48 225.6 2645.68 225.6ZM2807.3 454C2789.7 454 2773.83 449.6 2759.7 440.8C2745.56 432 2734.5 420 2726.5 404.8C2718.5 389.6 2714.5 372.533 2714.5 353.6C2714.5 334.4 2718.5 317.2 2726.5 302C2734.5 286.8 2745.56 274.8 2759.7 266C2773.83 257.2 2789.7 252.8 2807.3 252.8C2821.16 252.8 2833.56 255.6 2844.5 261.2C2855.43 266.8 2864.1 274.667 2870.5 284.8C2877.16 294.667 2880.76 305.867 2881.3 318.4V388C2880.76 400.8 2877.16 412.133 2870.5 422C2864.1 431.867 2855.43 439.733 2844.5 445.6C2833.56 451.2 2821.16 454 2807.3 454ZM2816.9 405.6C2831.56 405.6 2843.43 400.8 2852.5 391.2C2861.56 381.333 2866.1 368.667 2866.1 353.2C2866.1 343.067 2863.96 334.133 2859.7 326.4C2855.7 318.4 2849.96 312.267 2842.5 308C2835.3 303.467 2826.76 301.2 2816.9 301.2C2807.3 301.2 2798.76 303.467 2791.3 308C2784.1 312.267 2778.36 318.4 2774.1 326.4C2770.1 334.133 2768.1 343.067 2768.1 353.2C2768.1 363.6 2770.1 372.8 2774.1 380.8C2778.36 388.533 2784.1 394.667 2791.3 399.2C2798.76 403.467 2807.3 405.6 2816.9 405.6ZM2863.3 450V398L2871.7 350.8L2863.3 304.4V256.8H2915.3V450H2863.3ZM3032.45 450L2947.25 256.8H3004.85L3066.05 416H3037.65L3099.25 256.8H3154.85L3070.05 450H3032.45ZM3187.03 450V256.8H3239.43V450H3187.03ZM3239.43 343.2L3219.03 329.6C3221.43 305.867 3228.36 287.2 3239.83 273.6C3251.29 259.733 3267.83 252.8 3289.43 252.8C3298.76 252.8 3307.16 254.4 3314.63 257.6C3322.09 260.533 3328.89 265.467 3335.03 272.4L3302.23 310C3299.29 306.8 3295.69 304.4 3291.43 302.8C3287.43 301.2 3282.76 300.4 3277.43 300.4C3266.23 300.4 3257.03 304 3249.83 311.2C3242.89 318.133 3239.43 328.8 3239.43 343.2ZM3446.77 454C3427.3 454 3409.7 449.6 3393.97 440.8C3378.5 431.733 3366.1 419.6 3356.77 404.4C3347.7 388.933 3343.17 371.733 3343.17 352.8C3343.17 333.867 3347.7 316.933 3356.77 302C3365.83 286.8 3378.23 274.8 3393.97 266C3409.7 256.933 3427.17 252.4 3446.37 252.4C3466.1 252.4 3483.7 256.933 3499.17 266C3514.9 274.8 3527.3 286.8 3536.37 302C3545.43 316.933 3549.97 333.867 3549.97 352.8C3549.97 371.733 3545.43 388.933 3536.37 404.4C3527.3 419.6 3514.9 431.733 3499.17 440.8C3483.7 449.6 3466.23 454 3446.77 454ZM3446.37 405.2C3456.23 405.2 3464.9 403.067 3472.37 398.8C3480.1 394.267 3485.97 388.133 3489.97 380.4C3494.23 372.4 3496.37 363.333 3496.37 353.2C3496.37 343.067 3494.23 334.133 3489.97 326.4C3485.7 318.667 3479.83 312.667 3472.37 308.4C3464.9 303.867 3456.23 301.6 3446.37 301.6C3436.77 301.6 3428.23 303.867 3420.77 308.4C3413.3 312.667 3407.43 318.667 3403.17 326.4C3398.9 334.133 3396.77 343.067 3396.77 353.2C3396.77 363.333 3398.9 372.4 3403.17 380.4C3407.43 388.133 3413.3 394.267 3420.77 398.8C3428.23 403.067 3436.77 405.2 3446.37 405.2ZM3658.1 454.4C3647.17 454.4 3636.37 452.933 3625.7 450C3615.3 447.067 3605.7 443.067 3596.9 438C3588.1 432.667 3580.5 426.267 3574.1 418.8L3605.3 387.2C3611.97 394.667 3619.7 400.267 3628.5 404C3637.3 407.733 3647.03 409.6 3657.7 409.6C3666.23 409.6 3672.63 408.4 3676.9 406C3681.43 403.6 3683.7 400 3683.7 395.2C3683.7 389.867 3681.3 385.733 3676.5 382.8C3671.97 379.867 3665.97 377.467 3658.5 375.6C3651.03 373.467 3643.17 371.2 3634.9 368.8C3626.9 366.133 3619.17 362.8 3611.7 358.8C3604.23 354.533 3598.1 348.8 3593.3 341.6C3588.77 334.133 3586.5 324.533 3586.5 312.8C3586.5 300.533 3589.43 289.867 3595.3 280.8C3601.43 271.733 3610.1 264.667 3621.3 259.6C3632.5 254.533 3645.7 252 3660.9 252C3676.9 252 3691.3 254.8 3704.1 260.4C3717.17 266 3727.97 274.4 3736.5 285.6L3704.9 317.2C3699.03 310 3692.37 304.8 3684.9 301.6C3677.7 298.4 3669.83 296.8 3661.3 296.8C3653.57 296.8 3647.57 298 3643.3 300.4C3639.3 302.8 3637.3 306.133 3637.3 310.4C3637.3 315.2 3639.57 318.933 3644.1 321.6C3648.9 324.267 3655.03 326.667 3662.5 328.8C3669.97 330.667 3677.7 332.933 3685.7 335.6C3693.97 338 3701.7 341.467 3708.9 346C3716.37 350.533 3722.37 356.533 3726.9 364C3731.7 371.467 3734.1 381.067 3734.1 392.8C3734.1 411.733 3727.3 426.8 3713.7 438C3700.1 448.933 3681.57 454.4 3658.1 454.4Z" fill="#2E3234"/>
</svg>
