<svg width="1536" height="1769" viewBox="0 0 1536 1769" fill="none" xmlns="http://www.w3.org/2000/svg">
<path d="M616.29 842.861C617.64 837.343 626.166 831.948 637.758 827.35C654.381 847.275 704.065 898.836 773.438 900.491C773.561 900.491 773.745 900.491 773.868 900.491C773.99 900.491 774.174 900.491 774.297 900.491C843.671 898.836 893.293 847.275 909.977 827.35C921.57 831.948 930.157 837.343 931.446 842.861C935.065 858.127 953.282 834.155 950.89 798.168C948.436 762.18 848.884 762.18 829.501 761.076C810.119 759.972 794.293 775.238 773.929 789.4C753.565 775.238 737.801 759.972 718.357 761.076C698.913 762.18 599.361 762.18 596.969 798.168C594.515 834.155 612.732 858.127 616.413 842.861H616.29ZM706.089 813.433C733.998 813.433 773.806 818.89 773.806 818.89C773.806 818.89 813.615 813.433 841.524 813.433C849.866 813.433 860.845 814.721 872.316 816.867C853.239 836.117 817.786 864.503 773.806 865.729C729.827 864.503 694.374 836.117 675.297 816.867C686.768 814.721 697.747 813.433 706.089 813.433Z" fill="#14261C"/>
<path d="M861.889 652.243C861.889 652.243 873.543 641.208 889.552 640.84C905.316 641.208 916.787 651.814 917.216 652.243C920.589 655.554 925.006 657.209 929.422 657.209C933.839 657.209 938.316 655.493 941.751 652.121C948.56 645.315 948.498 634.341 941.751 627.536C939.604 625.39 919.915 606.569 889.92 606.078H889.307C859.374 606.569 839.684 625.39 837.476 627.536C830.729 634.28 830.729 645.131 837.415 651.937C844.101 658.742 855.08 658.865 861.95 652.243H861.889Z" fill="#14261C"/>
<path d="M1001.43 578.189C1007.26 571.506 1000.14 561.329 995.358 555.812C982.661 541.22 954.63 517.003 909.546 518.659C889.734 519.394 866.548 521.785 847.533 525.035C813.061 530.982 811.589 536.193 810.546 539.565C809.81 542.14 810.301 545.818 814.043 548.393C831.585 560.594 858.942 557.528 885.44 554.585C908.81 552.01 932.977 549.252 946.226 558.019C972.602 575.369 986.28 581.254 993.947 581.254C997.444 581.254 999.713 580.028 1001.37 578.128L1001.43 578.189Z" fill="#14261C"/>
<path d="M664.869 606.016C634.936 606.506 615.246 625.328 613.038 627.474C606.23 634.279 606.23 645.253 613.038 652.058C616.412 655.43 620.889 657.147 625.367 657.147C629.845 657.147 634.138 655.491 637.573 652.181C638.003 651.752 649.473 641.145 665.237 640.777C681.246 641.207 692.778 652.119 692.9 652.181C699.77 658.802 710.75 658.679 717.436 651.874C724.121 645.069 724.121 634.217 717.374 627.474C715.227 625.328 695.538 606.506 665.543 606.016H664.93H664.869Z" fill="#14261C"/>
<path d="M744.12 539.621C743.138 536.188 741.605 531.038 707.133 525.091C688.118 521.781 664.932 519.39 645.12 518.715C599.975 516.999 572.005 541.277 559.308 555.868C554.523 561.324 547.408 571.563 553.235 578.246C554.891 580.146 557.161 581.372 560.657 581.372C568.324 581.372 582.003 575.487 608.378 558.136C621.627 549.431 645.794 552.128 669.164 554.703C695.601 557.646 722.958 560.711 740.562 548.511C744.242 545.936 744.794 542.258 743.997 539.683L744.12 539.621Z" fill="#14261C"/>
<path d="M1020.32 453.85C1031.61 444.041 1021.18 340.92 1017.87 335.157C1014.56 329.395 894.394 262.63 821.218 272.439C640.148 296.717 542.068 403.884 523.053 423.993C504.038 444.102 537.713 443.918 548.508 439.443C635.547 403.332 752.274 344.476 876.974 381.077C911.262 391.132 1012.47 460.717 1020.32 453.85Z" fill="#14261C"/>
<path d="M503.915 767.629C524.586 748.317 480.361 653.289 483.121 581.252C487.906 457.471 498.211 418.969 503.118 407.75C511.95 387.641 533.419 363.424 564.701 355.883C595.984 348.342 512.564 214.384 536.915 206.843C561.266 199.302 607.576 310.515 618.924 308.798C674.251 300.399 646.649 268.273 735.589 246.325C783.862 234.431 682.961 144.063 707.558 133.027C728.535 123.647 776.563 243.566 846.121 243.137C903.41 242.769 928.375 117.7 941.624 131.311C965.055 155.405 921.199 213.28 930.093 256.257C934.693 278.512 971.005 282.252 982.353 285.808C1030.93 301.012 1152.44 206.475 915.801 35.5474C802.08 -46.6056 704.92 37.0801 521.826 53.8786C389.887 65.9563 446.564 182.687 370.014 300.215C175.02 599.706 423.378 842.793 503.915 767.568V767.629Z" fill="#14261C"/>
<path d="M16.5547 1317L129.755 1035.8H174.155L286.955 1317H228.955L141.755 1086.2H161.755L73.3547 1317H16.5547ZM76.5547 1264.6V1219H227.755V1264.6H76.5547ZM455.692 1317V1206.2C455.692 1194.73 452.092 1185.4 444.892 1178.2C437.692 1171 428.359 1167.4 416.892 1167.4C409.426 1167.4 402.759 1169 396.892 1172.2C391.026 1175.4 386.359 1179.93 382.892 1185.8C379.692 1191.67 378.092 1198.47 378.092 1206.2L357.692 1195.8C357.692 1180.6 360.892 1167.4 367.292 1156.2C373.959 1144.73 383.026 1135.8 394.492 1129.4C406.226 1123 419.426 1119.8 434.092 1119.8C448.226 1119.8 460.892 1123.4 472.092 1130.6C483.292 1137.53 492.092 1146.73 498.492 1158.2C504.892 1169.4 508.092 1181.53 508.092 1194.6V1317H455.692ZM325.692 1317V1123.8H378.092V1317H325.692ZM639.102 1402.6C618.568 1402.6 600.435 1398.87 584.702 1391.4C568.968 1384.2 556.435 1373.93 547.102 1360.6L580.302 1327.4C587.768 1336.2 596.035 1342.87 605.102 1347.4C614.435 1352.2 625.635 1354.6 638.702 1354.6C654.968 1354.6 667.768 1350.47 677.102 1342.2C686.702 1333.93 691.502 1322.47 691.502 1307.8V1259.4L700.302 1217L691.902 1174.6V1123.8H743.902V1307C743.902 1326.2 739.368 1342.87 730.302 1357C721.502 1371.4 709.235 1382.6 693.502 1390.6C677.768 1398.6 659.635 1402.6 639.102 1402.6ZM636.702 1311.8C619.368 1311.8 603.768 1307.67 589.902 1299.4C576.035 1290.87 565.102 1279.27 557.102 1264.6C549.368 1249.93 545.502 1233.53 545.502 1215.4C545.502 1197.27 549.368 1181 557.102 1166.6C565.102 1152.2 576.035 1140.87 589.902 1132.6C603.768 1124.07 619.368 1119.8 636.702 1119.8C651.102 1119.8 663.768 1122.6 674.702 1128.2C685.902 1133.8 694.702 1141.53 701.102 1151.4C707.502 1161 710.968 1172.33 711.502 1185.4V1246.2C710.968 1259 707.368 1270.47 700.702 1280.6C694.302 1290.47 685.502 1298.2 674.302 1303.8C663.368 1309.13 650.835 1311.8 636.702 1311.8ZM647.102 1264.2C656.702 1264.2 664.968 1262.2 671.902 1258.2C679.102 1253.93 684.702 1248.2 688.702 1241C692.702 1233.53 694.702 1225.13 694.702 1215.8C694.702 1206.2 692.702 1197.8 688.702 1190.6C684.702 1183.4 679.102 1177.8 671.902 1173.8C664.968 1169.53 656.702 1167.4 647.102 1167.4C637.502 1167.4 629.102 1169.53 621.902 1173.8C614.702 1177.8 609.102 1183.53 605.102 1191C601.102 1198.2 599.102 1206.47 599.102 1215.8C599.102 1224.87 601.102 1233.13 605.102 1240.6C609.102 1247.8 614.702 1253.53 621.902 1257.8C629.102 1262.07 637.502 1264.2 647.102 1264.2ZM890.342 1321C870.076 1321 852.076 1316.73 836.342 1308.2C820.609 1299.4 808.076 1287.4 798.742 1272.2C789.676 1257 785.142 1239.67 785.142 1220.2C785.142 1201 789.542 1183.93 798.342 1169C807.409 1153.8 819.676 1141.8 835.142 1133C850.609 1123.93 867.809 1119.4 886.742 1119.4C905.409 1119.4 921.809 1123.67 935.942 1132.2C950.342 1140.47 961.542 1151.93 969.542 1166.6C977.809 1181 981.942 1197.4 981.942 1215.8C981.942 1219.27 981.676 1222.87 981.142 1226.6C980.876 1230.07 980.209 1234.07 979.142 1238.6L816.742 1239V1199.8L954.742 1199.4L933.542 1215.8C933.009 1204.33 930.876 1194.73 927.142 1187C923.676 1179.27 918.476 1173.4 911.542 1169.4C904.876 1165.13 896.609 1163 886.742 1163C876.342 1163 867.276 1165.4 859.542 1170.2C851.809 1174.73 845.809 1181.27 841.542 1189.8C837.542 1198.07 835.542 1207.93 835.542 1219.4C835.542 1231.13 837.676 1241.4 841.942 1250.2C846.476 1258.73 852.876 1265.4 861.142 1270.2C869.409 1274.73 879.009 1277 889.942 1277C899.809 1277 908.742 1275.4 916.742 1272.2C924.742 1268.73 931.676 1263.67 937.542 1257L968.342 1287.8C959.009 1298.73 947.542 1307 933.942 1312.6C920.609 1318.2 906.076 1321 890.342 1321ZM1022.35 1317V1027.8H1074.75V1317H1022.35ZM1219.98 1321C1200.51 1321 1182.91 1316.6 1167.18 1307.8C1151.71 1298.73 1139.31 1286.6 1129.98 1271.4C1120.91 1255.93 1116.38 1238.73 1116.38 1219.8C1116.38 1200.87 1120.91 1183.93 1129.98 1169C1139.04 1153.8 1151.44 1141.8 1167.18 1133C1182.91 1123.93 1200.38 1119.4 1219.58 1119.4C1239.31 1119.4 1256.91 1123.93 1272.38 1133C1288.11 1141.8 1300.51 1153.8 1309.58 1169C1318.64 1183.93 1323.18 1200.87 1323.18 1219.8C1323.18 1238.73 1318.64 1255.93 1309.58 1271.4C1300.51 1286.6 1288.11 1298.73 1272.38 1307.8C1256.91 1316.6 1239.44 1321 1219.98 1321ZM1219.58 1272.2C1229.44 1272.2 1238.11 1270.07 1245.58 1265.8C1253.31 1261.27 1259.18 1255.13 1263.18 1247.4C1267.44 1239.4 1269.58 1230.33 1269.58 1220.2C1269.58 1210.07 1267.44 1201.13 1263.18 1193.4C1258.91 1185.67 1253.04 1179.67 1245.58 1175.4C1238.11 1170.87 1229.44 1168.6 1219.58 1168.6C1209.98 1168.6 1201.44 1170.87 1193.98 1175.4C1186.51 1179.67 1180.64 1185.67 1176.38 1193.4C1172.11 1201.13 1169.98 1210.07 1169.98 1220.2C1169.98 1230.33 1172.11 1239.4 1176.38 1247.4C1180.64 1255.13 1186.51 1261.27 1193.98 1265.8C1201.44 1270.07 1209.98 1272.2 1219.58 1272.2ZM1431.31 1321.4C1420.38 1321.4 1409.58 1319.93 1398.91 1317C1388.51 1314.07 1378.91 1310.07 1370.11 1305C1361.31 1299.67 1353.71 1293.27 1347.31 1285.8L1378.51 1254.2C1385.18 1261.67 1392.91 1267.27 1401.71 1271C1410.51 1274.73 1420.24 1276.6 1430.91 1276.6C1439.44 1276.6 1445.84 1275.4 1450.11 1273C1454.64 1270.6 1456.91 1267 1456.91 1262.2C1456.91 1256.87 1454.51 1252.73 1449.71 1249.8C1445.18 1246.87 1439.18 1244.47 1431.71 1242.6C1424.24 1240.47 1416.38 1238.2 1408.11 1235.8C1400.11 1233.13 1392.38 1229.8 1384.91 1225.8C1377.44 1221.53 1371.31 1215.8 1366.51 1208.6C1361.98 1201.13 1359.71 1191.53 1359.71 1179.8C1359.71 1167.53 1362.64 1156.87 1368.51 1147.8C1374.64 1138.73 1383.31 1131.67 1394.51 1126.6C1405.71 1121.53 1418.91 1119 1434.11 1119C1450.11 1119 1464.51 1121.8 1477.31 1127.4C1490.38 1133 1501.18 1141.4 1509.71 1152.6L1478.11 1184.2C1472.24 1177 1465.58 1171.8 1458.11 1168.6C1450.91 1165.4 1443.04 1163.8 1434.51 1163.8C1426.78 1163.8 1420.78 1165 1416.51 1167.4C1412.51 1169.8 1410.51 1173.13 1410.51 1177.4C1410.51 1182.2 1412.78 1185.93 1417.31 1188.6C1422.11 1191.27 1428.24 1193.67 1435.71 1195.8C1443.18 1197.67 1450.91 1199.93 1458.91 1202.6C1467.18 1205 1474.91 1208.47 1482.11 1213C1489.58 1217.53 1495.58 1223.53 1500.11 1231C1504.91 1238.47 1507.31 1248.07 1507.31 1259.8C1507.31 1278.73 1500.51 1293.8 1486.91 1305C1473.31 1315.93 1454.78 1321.4 1431.31 1321.4ZM82.1906 1679L229.791 1473.8H294.591L146.991 1679H82.1906ZM82.1906 1717V1679L122.991 1669H291.391V1717H82.1906ZM90.5906 1483.8V1435.8H294.591V1473.8L253.391 1483.8H90.5906ZM339.653 1717V1523.8H392.453V1717H339.653ZM366.053 1492.6C357.52 1492.6 350.453 1489.8 344.853 1484.2C339.253 1478.33 336.453 1471.13 336.453 1462.6C336.453 1454.33 339.253 1447.27 344.853 1441.4C350.453 1435.53 357.52 1432.6 366.053 1432.6C374.853 1432.6 381.92 1435.53 387.253 1441.4C392.853 1447.27 395.653 1454.33 395.653 1462.6C395.653 1471.13 392.853 1478.33 387.253 1484.2C381.92 1489.8 374.853 1492.6 366.053 1492.6ZM527.672 1721C510.072 1721 494.205 1716.6 480.072 1707.8C465.939 1699 454.872 1687 446.872 1671.8C438.872 1656.6 434.872 1639.53 434.872 1620.6C434.872 1601.4 438.872 1584.2 446.872 1569C454.872 1553.8 465.939 1541.8 480.072 1533C494.205 1524.2 510.072 1519.8 527.672 1519.8C541.539 1519.8 553.939 1522.6 564.872 1528.2C575.805 1533.8 584.472 1541.67 590.872 1551.8C597.539 1561.67 601.139 1572.87 601.672 1585.4V1655C601.139 1667.8 597.539 1679.13 590.872 1689C584.472 1698.87 575.805 1706.73 564.872 1712.6C553.939 1718.2 541.539 1721 527.672 1721ZM537.272 1672.6C551.939 1672.6 563.805 1667.8 572.872 1658.2C581.939 1648.33 586.472 1635.67 586.472 1620.2C586.472 1610.07 584.339 1601.13 580.072 1593.4C576.072 1585.4 570.339 1579.27 562.872 1575C555.672 1570.47 547.139 1568.2 537.272 1568.2C527.672 1568.2 519.139 1570.47 511.672 1575C504.472 1579.27 498.739 1585.4 494.472 1593.4C490.472 1601.13 488.472 1610.07 488.472 1620.2C488.472 1630.6 490.472 1639.8 494.472 1647.8C498.739 1655.53 504.472 1661.67 511.672 1666.2C519.139 1670.47 527.672 1672.6 537.272 1672.6ZM583.672 1717V1665L592.072 1617.8L583.672 1571.4V1523.8H635.672V1717H583.672ZM752.828 1717L667.628 1523.8H725.228L786.428 1683H758.028L819.628 1523.8H875.228L790.428 1717H752.828ZM907.403 1717V1523.8H959.803V1717H907.403ZM959.803 1610.2L939.403 1596.6C941.803 1572.87 948.736 1554.2 960.203 1540.6C971.67 1526.73 988.203 1519.8 1009.8 1519.8C1019.14 1519.8 1027.54 1521.4 1035 1524.6C1042.47 1527.53 1049.27 1532.47 1055.4 1539.4L1022.6 1577C1019.67 1573.8 1016.07 1571.4 1011.8 1569.8C1007.8 1568.2 1003.14 1567.4 997.803 1567.4C986.603 1567.4 977.403 1571 970.203 1578.2C963.27 1585.13 959.803 1595.8 959.803 1610.2ZM1167.14 1721C1147.67 1721 1130.07 1716.6 1114.34 1707.8C1098.87 1698.73 1086.47 1686.6 1077.14 1671.4C1068.07 1655.93 1063.54 1638.73 1063.54 1619.8C1063.54 1600.87 1068.07 1583.93 1077.14 1569C1086.21 1553.8 1098.61 1541.8 1114.34 1533C1130.07 1523.93 1147.54 1519.4 1166.74 1519.4C1186.47 1519.4 1204.07 1523.93 1219.54 1533C1235.27 1541.8 1247.67 1553.8 1256.74 1569C1265.81 1583.93 1270.34 1600.87 1270.34 1619.8C1270.34 1638.73 1265.81 1655.93 1256.74 1671.4C1247.67 1686.6 1235.27 1698.73 1219.54 1707.8C1204.07 1716.6 1186.61 1721 1167.14 1721ZM1166.74 1672.2C1176.61 1672.2 1185.27 1670.07 1192.74 1665.8C1200.47 1661.27 1206.34 1655.13 1210.34 1647.4C1214.61 1639.4 1216.74 1630.33 1216.74 1620.2C1216.74 1610.07 1214.61 1601.13 1210.34 1593.4C1206.07 1585.67 1200.21 1579.67 1192.74 1575.4C1185.27 1570.87 1176.61 1568.6 1166.74 1568.6C1157.14 1568.6 1148.61 1570.87 1141.14 1575.4C1133.67 1579.67 1127.81 1585.67 1123.54 1593.4C1119.27 1601.13 1117.14 1610.07 1117.14 1620.2C1117.14 1630.33 1119.27 1639.4 1123.54 1647.4C1127.81 1655.13 1133.67 1661.27 1141.14 1665.8C1148.61 1670.07 1157.14 1672.2 1166.74 1672.2ZM1378.48 1721.4C1367.54 1721.4 1356.74 1719.93 1346.08 1717C1335.68 1714.07 1326.08 1710.07 1317.28 1705C1308.48 1699.67 1300.88 1693.27 1294.48 1685.8L1325.68 1654.2C1332.34 1661.67 1340.08 1667.27 1348.88 1671C1357.68 1674.73 1367.41 1676.6 1378.08 1676.6C1386.61 1676.6 1393.01 1675.4 1397.28 1673C1401.81 1670.6 1404.08 1667 1404.08 1662.2C1404.08 1656.87 1401.68 1652.73 1396.88 1649.8C1392.34 1646.87 1386.34 1644.47 1378.88 1642.6C1371.41 1640.47 1363.54 1638.2 1355.28 1635.8C1347.28 1633.13 1339.54 1629.8 1332.08 1625.8C1324.61 1621.53 1318.48 1615.8 1313.68 1608.6C1309.14 1601.13 1306.88 1591.53 1306.88 1579.8C1306.88 1567.53 1309.81 1556.87 1315.68 1547.8C1321.81 1538.73 1330.48 1531.67 1341.67 1526.6C1352.88 1521.53 1366.08 1519 1381.28 1519C1397.28 1519 1411.68 1521.8 1424.48 1527.4C1437.54 1533 1448.34 1541.4 1456.88 1552.6L1425.28 1584.2C1419.41 1577 1412.74 1571.8 1405.28 1568.6C1398.08 1565.4 1390.21 1563.8 1381.68 1563.8C1373.94 1563.8 1367.94 1565 1363.68 1567.4C1359.68 1569.8 1357.68 1573.13 1357.68 1577.4C1357.68 1582.2 1359.94 1585.93 1364.48 1588.6C1369.28 1591.27 1375.41 1593.67 1382.88 1595.8C1390.34 1597.67 1398.08 1599.93 1406.08 1602.6C1414.34 1605 1422.08 1608.47 1429.28 1613C1436.74 1617.53 1442.74 1623.53 1447.28 1631C1452.08 1638.47 1454.48 1648.07 1454.48 1659.8C1454.48 1678.73 1447.68 1693.8 1434.08 1705C1420.48 1715.93 1401.94 1721.4 1378.48 1721.4Z" fill="#14261C"/>
</svg>
